<?xml version="1.0" encoding="UTF-8" standalone="no"?>
<!DOCTYPE svg PUBLIC "-//W3C//DTD SVG 20010904//EN"
              "http://www.w3.org/TR/2001/REC-SVG-20010904/DTD/svg10.dtd">

<svg xmlns="http://www.w3.org/2000/svg"
     width="11.1111in" height="11.1111in"
     viewBox="0 0 800 800">
  <path id="Path #8"
        fill="none" stroke="black" stroke-width="1"
        d="M 101.47,481.00
           C 102.94,481.00 104.12,480.68 105.02,480.05
             107.05,478.63 108.36,475.28 108.92,470.00
             108.92,470.00 110.52,470.00 110.52,470.00
             126.91,470.00 141.85,468.13 155.34,464.39
             181.88,456.90 203.24,443.32 219.41,423.64
             242.71,395.10 254.36,357.45 254.36,310.67
             254.36,270.16 242.56,244.01 218.97,232.22
             210.61,228.07 201.59,226.00 191.91,226.00
             182.22,226.00 173.48,226.90 165.70,228.69
             165.13,227.88 164.01,227.47 162.34,227.47
             160.68,227.47 159.07,228.52 157.53,230.62
             145.47,234.04 133.38,239.48 121.25,246.95
             119.22,248.34 118.20,250.25 118.20,252.69
             118.20,255.69 119.62,257.19 122.47,257.19
             123.21,257.19 124.10,256.98 125.16,256.58
             133.38,251.40 142.59,247.11 152.77,243.70
             135.25,295.64 117.22,367.07 98.66,458.00
             93.28,458.00 89.15,457.34 86.27,456.00
             83.37,454.67 81.35,453.80 80.20,453.39
             79.31,453.14 78.43,453.02 77.58,453.02
             76.73,453.02 75.84,453.59 74.91,454.75
             73.97,455.90 73.50,456.96 73.50,457.94
             73.50,458.91 73.54,459.61 73.61,460.03
             73.95,463.45 79.40,466.05 89.98,467.83
             92.43,468.25 94.83,468.72 97.19,469.23
             96.86,472.24 96.70,474.54 96.70,476.12
             96.70,479.38 98.29,481.00 101.47,481.00 Z
           M 228.53,386.48
           C 218.88,408.48 204.13,426.02 184.27,439.12
             164.40,452.23 139.89,458.78 110.75,458.78
             115.55,435.34 120.15,413.60 124.55,393.55
             137.25,335.45 150.65,284.41 164.73,240.44
             171.08,238.81 178.16,238.00 185.98,238.00
             223.99,238.00 243.00,263.15 243.00,313.45
             243.00,340.15 238.18,364.50 228.53,386.48 Z
           M 343.83,317.11
           C 343.25,319.60 342.79,321.63 342.44,323.20
             342.08,324.77 341.66,326.58 341.17,328.64
             340.69,330.70 340.14,333.12 339.53,335.92
             339.53,335.92 338.62,341.53 338.62,341.53
             338.21,343.92 338.00,346.00 338.00,347.77
             338.00,351.62 339.07,354.48 341.20,356.36
             342.38,357.45 344.29,358.00 346.94,358.00
             349.59,358.00 351.60,357.50 352.97,356.48
             354.33,355.48 355.79,354.07 357.34,352.28
             358.89,350.49 359.67,349.00 359.67,347.80
             359.67,345.11 358.32,343.77 355.62,343.77
             354.35,343.77 353.33,344.18 352.55,345.00
             351.77,345.82 351.10,346.57 350.55,347.23
             349.99,347.89 349.49,348.41 349.03,348.80
             348.57,349.18 348.13,349.38 347.72,349.38
             347.30,349.38 347.11,349.40 347.14,349.44
             346.85,349.02 346.70,347.68 346.70,345.42
             346.70,343.16 347.74,337.64 349.81,328.86
             351.89,320.07 353.14,314.61 353.55,312.47
             354.89,312.47 356.67,312.47 358.89,312.47
             361.12,312.47 362.67,312.35 363.55,312.11
             365.95,311.51 367.16,310.11 367.16,307.91
             367.16,306.59 366.63,305.59 365.59,304.89
             364.56,304.20 362.58,303.84 359.66,303.84
             359.66,303.84 355.08,303.84 355.08,303.84
             355.41,301.91 356.06,298.84 357.03,294.62
             357.03,294.62 357.03,293.75 357.03,293.75
             357.03,291.15 355.93,289.84 353.72,289.84
             351.52,289.84 349.98,290.84 349.11,292.83
             348.23,294.82 347.60,296.78 347.22,298.72
             346.84,300.66 346.58,302.12 346.44,303.09
             346.29,304.06 346.26,304.31 346.34,303.84
             346.34,303.84 340.83,303.84 340.83,303.84
             339.34,304.02 338.16,304.61 337.30,305.61
             336.43,306.60 336.00,307.64 336.00,308.73
             336.00,310.96 337.39,312.21 340.17,312.47
             342.22,312.47 343.79,312.47 344.86,312.47
             344.75,313.06 344.41,314.61 343.83,317.11 Z
           M 284.05,343.59
           C 283.00,344.15 281.55,344.92 279.70,345.91
             277.86,346.89 276.20,347.38 274.72,347.38
             272.71,347.38 271.70,345.25 271.70,341.00
             271.70,341.00 271.70,335.19 271.70,335.19
             275.19,333.81 278.66,332.14 282.11,330.16
             285.55,328.18 288.52,325.56 290.98,322.31
             293.46,319.05 294.70,315.06 294.70,310.34
             294.70,307.65 293.96,305.23 292.48,303.08
             291.02,300.92 288.91,299.84 286.19,299.84
             281.81,299.84 277.86,301.91 274.34,306.03
             270.82,310.16 268.05,315.21 266.03,321.20
             264.01,327.20 263.00,333.55 263.00,340.28
             263.00,344.29 263.77,347.75 265.33,350.66
             266.20,352.30 267.36,353.61 268.81,354.56
             270.26,355.52 272.30,356.00 274.94,356.00
             277.57,356.00 280.85,355.00 284.77,352.98
             288.68,350.96 290.64,348.84 290.64,346.62
             290.64,344.04 289.38,342.75 286.86,342.75
             286.02,342.75 285.09,343.03 284.05,343.59 Z
           M 283.84,317.77
           C 282.41,319.71 280.33,321.45 277.58,322.97
             276.30,323.68 274.98,324.36 273.61,325.00
             272.23,325.65 272.02,325.71 272.98,325.19
             272.77,327.22 272.86,327.59 273.23,326.30
             274.91,320.73 276.94,316.38 279.31,313.22
             281.69,310.05 283.52,308.47 284.80,308.47
             285.60,308.47 286.00,309.09 286.00,310.31
             286.00,313.34 285.28,315.82 283.84,317.77 Z
           M 316.09,257.34
           C 314.46,257.34 313.12,258.35 312.09,260.36
             310.62,268.51 309.23,275.71 307.92,281.98
             306.62,288.25 305.71,292.60 305.20,295.05
             304.69,297.50 304.19,300.02 303.70,302.62
             303.21,305.22 302.69,308.05 302.14,311.12
             301.60,314.20 301.03,317.59 300.44,321.28
             299.85,324.98 299.30,328.51 298.78,331.88
             298.26,335.24 298.00,338.82 298.00,342.61
             298.00,346.40 298.89,349.92 300.69,353.16
             302.48,356.39 305.32,358.00 309.20,358.00
             314.24,358.00 318.61,354.93 322.31,348.80
             325.08,344.27 327.25,338.62 328.81,331.84
             330.38,325.06 331.16,319.20 331.16,314.25
             331.16,311.59 330.27,309.03 328.50,306.56
             326.73,304.09 324.16,302.84 320.80,302.84
             317.44,302.84 314.12,304.55 310.84,307.97
             309.29,309.57 308.02,312.60 307.03,317.05
             310.00,310.02 312.54,302.01 314.64,293.02
             316.74,284.03 318.70,273.94 320.52,262.75
             320.52,262.75 320.77,261.92 320.77,261.92
             320.77,258.87 319.21,257.34 316.09,257.34 Z
           M 307.44,332.42
           C 307.94,327.71 309.84,323.05 313.16,318.42
             316.47,313.79 318.88,311.47 320.38,311.47
             320.88,311.47 321.27,311.93 321.56,312.86
             321.85,313.78 322.00,315.44 322.00,317.84
             322.00,320.25 321.82,322.54 321.47,324.70
             320.18,332.53 317.91,339.06 314.67,344.30
             312.58,347.68 310.63,349.38 308.83,349.38
             307.41,349.38 306.70,347.18 306.70,342.80
             306.70,340.58 306.95,337.12 307.44,332.42 Z
           M 276.88,531.11
           C 278.43,529.70 279.79,528.98 280.95,528.98
             281.69,528.98 283.04,529.91 284.98,531.77
             286.94,533.62 288.48,534.55 289.59,534.55
             292.16,534.55 293.44,532.78 293.44,529.25
             293.44,529.25 293.44,483.47 293.44,483.47
             293.44,482.05 293.52,481.08 293.69,480.55
             294.18,478.43 296.59,476.52 300.92,474.81
             305.27,473.11 307.44,470.64 307.44,467.42
             307.44,465.87 306.85,464.46 305.67,463.20
             304.49,461.93 302.73,461.30 300.38,461.30
             299.82,461.30 298.27,461.40 295.73,461.59
             293.20,461.78 289.67,461.98 285.14,462.17
             280.61,462.37 275.72,462.47 270.47,462.47
             270.47,462.47 269.92,462.47 269.92,462.47
             264.85,462.47 260.18,462.37 255.92,462.17
             251.66,461.98 248.38,461.78 246.08,461.59
             243.79,461.40 242.38,461.30 241.88,461.30
             237.96,461.30 236.00,463.53 236.00,468.00
             236.00,472.28 238.55,474.62 243.66,475.00
             245.59,475.18 248.14,475.36 251.31,475.53
             258.53,476.06 263.28,476.86 265.56,477.92
             267.85,478.98 269.00,481.27 269.00,484.80
             269.00,484.80 269.00,515.22 269.00,515.22
             269.00,517.34 268.73,518.93 268.19,519.98
             266.56,523.16 261.15,526.87 251.95,531.11
             242.77,535.34 232.95,537.45 222.50,537.45
             214.57,537.45 206.73,535.94 198.98,532.91
             191.23,529.88 183.52,525.06 175.86,518.45
             168.20,511.85 162.03,502.21 157.34,489.55
             152.66,476.87 150.31,461.97 150.31,444.84
             150.31,430.73 152.20,418.27 155.98,407.47
             159.77,396.66 164.77,388.31 170.98,382.42
             177.20,376.53 183.78,372.15 190.72,369.30
             197.66,366.43 204.83,365.00 212.22,365.00
             224.06,365.00 235.36,367.98 246.11,373.92
             256.86,379.87 265.79,387.62 272.89,397.16
             276.71,402.39 279.35,407.48 280.81,412.44
             282.27,417.39 283.27,420.72 283.83,422.44
             284.38,424.15 285.94,425.00 288.50,425.00
             293.60,425.00 296.16,423.56 296.16,420.67
             296.16,420.50 296.07,419.51 295.91,417.70
             295.74,415.90 295.53,413.43 295.28,410.28
             295.04,407.12 294.75,403.56 294.42,399.59
             294.10,395.62 293.85,390.95 293.69,385.55
             293.52,380.14 293.44,374.82 293.44,369.59
             293.44,369.59 293.44,361.92 293.44,361.92
             293.44,359.32 292.16,358.02 289.59,358.02
             288.13,358.02 286.95,358.29 286.03,358.84
             285.48,359.03 283.78,360.92 280.94,364.50
             278.10,368.07 275.68,369.86 273.67,369.86
             273.67,369.86 272.58,369.86 272.58,369.86
             272.21,369.86 270.33,368.80 266.94,366.67
             263.55,364.55 259.71,362.38 255.41,360.17
             251.11,357.95 245.30,355.92 237.98,354.08
             230.66,352.23 223.16,351.30 215.47,351.30
             190.12,351.30 168.54,360.59 150.72,379.17
             132.91,397.75 124.00,420.86 124.00,448.50
             124.00,477.17 133.49,501.67 152.47,522.00
             171.46,542.34 193.81,552.50 219.53,552.50
             241.38,552.50 260.49,545.37 276.88,531.11 Z
           M 315.11,494.75
           C 315.11,494.75 315.11,491.66 315.11,491.66
             315.11,489.59 314.30,488.56 312.67,488.56
             312.32,488.56 311.94,488.67 311.53,488.88
             311.64,488.81 311.68,488.78 311.64,488.78
             309.95,489.62 308.21,490.48 306.41,491.39
             303.82,492.63 302.53,493.74 302.53,494.72
             302.68,495.34 302.96,495.84 303.38,496.25
             303.98,496.70 304.60,497.15 305.25,497.59
             305.89,498.03 306.30,498.31 306.48,498.44
             306.67,498.55 306.80,498.66 306.89,498.75
             306.97,498.84 307.01,498.86 307.00,498.83
             307.00,498.79 307.00,498.84 307.00,499.00
             307.00,499.00 307.00,518.88 307.00,518.88
             307.00,519.04 306.98,519.13 306.95,519.14
             306.72,519.23 306.35,519.31 305.84,519.39
             305.33,519.46 304.90,519.59 304.55,519.75
             304.20,519.92 303.86,520.24 303.52,520.72
             303.17,521.19 303.00,521.82 303.00,522.62
             303.00,524.54 303.90,525.50 305.70,525.50
             305.80,525.50 306.00,525.48 306.28,525.44
             306.57,525.41 306.93,525.35 307.36,525.28
             307.79,525.22 308.26,525.16 308.78,525.09
             309.31,525.03 309.91,524.99 310.59,524.97
             311.28,524.94 311.97,524.92 312.67,524.92
             313.30,524.92 313.98,524.94 314.70,524.97
             315.42,524.99 315.77,525.00 315.77,525.00
             315.77,525.00 316.35,525.06 317.53,525.19
             318.71,525.32 319.46,525.41 319.80,525.44
             320.13,525.48 320.34,525.50 320.42,525.50
             321.84,525.50 322.55,524.46 322.55,522.39
             322.55,521.01 322.13,520.15 321.31,519.83
             320.49,519.50 319.22,519.28 317.50,519.17
             315.58,519.12 314.04,519.59 312.88,520.58
             314.66,521.40 315.55,520.65 315.55,518.31
             315.55,518.31 315.55,500.05 315.55,500.05
             315.55,499.73 315.55,499.56 315.58,499.53
             315.79,499.22 316.39,498.75 317.39,498.11
             318.40,497.46 319.29,497.14 320.06,497.14
             320.64,497.14 321.32,497.37 322.08,497.83
             322.84,498.28 323.66,498.50 324.53,498.50
             325.05,498.50 325.55,498.44 326.02,498.31
             326.48,498.19 326.91,498.02 327.31,497.81
             327.71,497.61 328.00,497.50 328.19,497.50
             328.19,497.50 329.14,496.69 329.14,496.69
             329.50,496.37 329.78,496.11 329.97,495.92
             330.16,495.73 330.42,495.40 330.73,494.94
             331.05,494.47 331.22,493.92 331.22,493.30
             331.22,493.30 331.22,493.23 331.22,493.23
             331.22,491.60 330.38,490.38 328.70,489.58
             327.04,488.78 325.40,488.38 323.80,488.38
             322.75,488.38 321.86,488.50 321.12,488.73
             320.39,488.98 319.36,489.53 318.03,490.41
             316.70,491.27 315.58,492.02 314.69,492.64
             313.80,493.26 313.49,493.56 313.77,493.56
             314.66,493.56 315.11,493.96 315.11,494.75 Z
           M 336.20,500.91
           C 337.19,501.65 338.27,502.02 339.42,502.02
             340.60,502.02 341.61,501.48 342.45,500.42
             343.80,497.63 345.39,496.23 347.25,496.23
             348.53,496.23 349.63,496.71 350.55,497.67
             351.46,498.76 351.92,500.38 351.92,502.55
             351.92,502.55 351.92,505.22 351.92,505.22
             351.92,504.98 352.16,504.80 352.66,504.69
             352.66,504.69 351.75,504.73 351.75,504.73
             351.01,504.80 350.11,504.92 349.05,505.09
             347.99,505.27 346.87,505.49 345.67,505.75
             344.47,506.00 343.23,506.38 341.94,506.89
             340.66,507.39 339.59,507.98 338.73,508.66
             336.24,510.56 335.00,513.19 335.00,516.53
             335.00,516.53 335.00,516.61 335.00,516.61
             335.00,519.37 335.93,521.71 337.80,523.62
             339.67,525.54 342.08,526.50 345.03,526.50
             347.80,526.50 350.43,525.72 352.92,524.17
             353.57,523.76 354.09,523.35 354.48,522.95
             354.88,522.55 355.05,522.41 354.98,522.53
             354.93,522.65 354.62,522.70 354.06,522.70
             353.07,522.70 352.58,522.72 352.58,522.75
             352.58,522.77 352.85,522.78 353.39,522.78
             353.39,522.78 353.16,522.45 353.16,522.45
             353.39,522.78 353.69,523.11 354.03,523.45
             354.38,523.80 354.79,524.18 355.25,524.59
             355.72,525.00 356.33,525.33 357.08,525.59
             357.83,525.86 358.61,526.00 359.42,526.00
             361.63,526.00 363.41,525.16 364.75,523.48
             366.10,521.81 366.78,520.23 366.78,518.73
             366.78,517.09 366.04,516.27 364.55,516.27
             363.69,516.27 363.10,516.52 362.77,517.03
             362.43,517.53 362.17,517.87 361.98,518.03
             361.80,518.19 361.55,518.27 361.25,518.27
             361.09,518.27 360.97,518.25 360.88,518.22
             360.78,518.19 360.65,518.05 360.48,517.80
             360.33,517.55 360.25,517.14 360.25,516.58
             360.25,516.58 360.25,501.97 360.25,501.97
             360.25,501.28 360.20,500.32 360.11,499.08
             359.87,497.07 359.24,495.34 358.23,493.91
             357.22,492.46 356.00,491.45 354.58,490.89
             353.16,490.32 351.91,489.92 350.84,489.70
             349.77,489.48 348.72,489.38 347.70,489.38
             344.48,489.38 341.52,490.26 338.80,492.03
             336.08,493.80 334.72,495.72 334.72,497.78
             334.72,499.12 335.21,500.17 336.20,500.91 Z
           M 344.58,518.62
           C 343.89,518.05 343.55,517.08 343.55,515.70
             343.55,514.48 343.96,513.52 344.80,512.84
             345.70,512.00 346.98,511.41 348.64,511.06
             350.30,510.72 351.69,510.55 352.83,510.55
             352.38,510.55 352.13,510.45 352.08,510.27
             352.02,510.08 352.00,510.38 352.00,511.16
             352.00,511.16 352.00,516.03 352.00,516.03
             352.00,516.42 351.97,516.65 351.91,516.72
             351.71,516.96 351.45,517.23 351.12,517.55
             350.81,517.85 350.24,518.20 349.41,518.59
             348.57,518.99 347.71,519.19 346.81,519.19
             345.73,519.19 344.98,519.00 344.58,518.62 Z
           M 380.23,517.80
           C 379.58,517.50 379.25,517.18 379.25,516.86
             379.25,516.86 379.25,500.77 379.25,500.77
             379.25,499.21 379.73,498.10 380.69,497.42
             381.85,496.55 383.18,496.11 384.66,496.11
             387.29,496.11 389.67,497.27 391.80,499.59
             393.93,501.91 395.00,504.64 395.00,507.80
             395.00,510.96 393.94,513.59 391.83,515.69
             389.71,517.77 387.24,518.81 384.42,518.81
             382.95,518.81 381.55,518.48 380.23,517.80 Z
           M 385.23,488.47
           C 383.32,488.75 381.60,489.37 380.08,490.31
             378.55,491.25 377.43,492.13 376.70,492.95
             376.70,492.95 376.22,493.50 376.22,493.50
             377.52,493.50 378.17,493.88 378.17,494.62
             378.17,494.62 378.17,489.89 378.17,489.89
             378.17,488.21 377.45,487.38 376.00,487.38
             375.72,487.38 375.44,487.43 375.17,487.53
             374.90,487.62 374.71,487.73 374.61,487.83
             374.50,487.93 374.40,488.01 374.30,488.06
             374.20,488.12 374.06,488.20 373.88,488.33
             372.47,489.20 370.88,490.18 369.09,491.27
             366.36,492.92 365.00,494.15 365.00,494.94
             365.00,494.94 365.00,495.02 365.00,495.02
             365.00,495.76 365.24,496.30 365.72,496.66
             366.21,497.00 367.13,497.46 368.50,498.03
             369.48,498.47 370.32,498.84 371.02,499.12
             371.00,499.12 371.00,499.16 371.00,499.23
             371.00,499.23 371.00,534.17 371.00,534.17
             371.00,534.48 370.89,534.66 370.67,534.70
             370.35,534.75 370.00,534.83 369.62,534.92
             369.25,535.02 368.95,535.09 368.72,535.11
             368.50,535.14 368.24,535.19 367.94,535.27
             367.64,535.35 367.42,535.41 367.27,535.44
             367.12,535.48 366.86,535.57 366.48,535.72
             366.12,535.88 365.88,536.04 365.78,536.20
             365.68,536.38 365.55,536.54 365.41,536.69
             365.27,536.83 365.16,537.07 365.09,537.39
             365.03,537.71 365.00,538.00 365.00,538.25
             365.00,540.28 365.96,541.30 367.89,541.30
             367.89,541.30 369.39,541.14 369.39,541.14
             370.30,541.05 371.53,540.95 373.09,540.84
             374.66,540.75 376.23,540.70 377.83,540.70
             379.02,540.70 380.14,540.72 381.19,540.77
             382.24,540.82 383.07,540.87 383.69,540.92
             384.30,540.97 384.68,541.00 384.81,541.00
             386.44,541.00 387.25,540.11 387.25,538.33
             387.25,537.87 387.20,537.41 387.11,536.95
             387.02,536.49 386.79,536.12 386.44,535.83
             386.08,535.55 385.75,535.32 385.45,535.14
             385.16,534.96 384.76,534.84 384.25,534.78
             383.74,534.72 383.33,534.67 383.02,534.64
             382.70,534.61 382.21,534.57 381.55,534.52
             380.89,534.47 380.32,534.43 379.84,534.38
             379.64,534.36 379.55,534.24 379.55,534.00
             379.55,534.00 379.55,523.31 379.55,523.31
             379.55,523.81 379.13,524.06 378.31,524.06
             378.31,524.06 378.61,524.14 378.61,524.14
             378.86,524.14 379.11,524.16 379.38,524.20
             379.64,524.24 379.99,524.29 380.42,524.34
             380.86,524.39 381.34,524.43 381.86,524.45
             382.39,524.48 382.92,524.50 383.45,524.50
             389.20,524.50 393.94,522.82 397.66,519.45
             401.38,516.09 403.25,511.71 403.25,506.33
             403.25,501.45 401.74,497.23 398.73,493.69
             395.72,490.15 391.88,488.38 387.20,488.38
             386.35,488.38 385.69,488.41 385.23,488.47 Z
           M 427.03,524.50
           C 427.14,524.50 427.29,524.48 427.45,524.45
             427.63,524.42 427.91,524.38 428.28,524.33
             428.66,524.29 429.11,524.24 429.61,524.20
             430.12,524.16 430.70,524.12 431.34,524.09
             431.99,524.07 432.63,524.06 433.28,524.06
             433.93,524.06 434.60,524.07 435.30,524.09
             435.99,524.12 436.58,524.16 437.06,524.20
             437.55,524.24 438.01,524.29 438.44,524.33
             438.86,524.38 439.21,524.42 439.48,524.45
             439.75,524.48 439.94,524.50 440.05,524.50
             441.71,524.50 442.55,523.45 442.55,521.33
             442.55,519.67 441.67,518.76 439.92,518.59
             439.21,518.51 438.82,518.46 438.75,518.44
             438.69,518.42 438.63,518.38 438.59,518.33
             438.56,518.28 438.55,518.07 438.55,517.72
             438.40,510.94 438.19,506.34 437.92,503.94
             437.65,501.53 437.10,499.33 436.28,497.33
             434.06,492.16 430.32,489.58 425.06,489.58
             423.41,489.58 421.83,489.84 420.33,490.34
             418.84,490.86 417.75,491.32 417.06,491.73
             416.38,492.15 416.16,492.36 416.41,492.36
             417.21,492.36 417.61,492.71 417.61,493.41
             417.61,493.41 417.69,470.33 417.69,470.33
             417.69,468.36 416.79,467.38 415.00,467.38
             415.00,467.38 414.94,467.38 414.94,467.38
             414.46,467.38 411.47,469.03 405.97,472.33
             404.66,473.06 404.00,474.00 404.00,475.14
             404.00,476.64 404.79,477.59 406.36,478.00
             407.94,478.40 408.73,478.57 408.72,478.52
             408.91,479.62 409.00,485.66 409.00,496.62
             409.00,496.62 409.00,496.92 409.00,496.92
             409.00,503.04 408.88,509.85 408.64,517.36
             408.60,517.86 408.57,518.15 408.56,518.22
             408.56,518.29 408.55,518.35 408.52,518.39
             408.48,518.43 408.47,518.45 408.48,518.45
             407.32,518.58 406.44,518.82 405.86,519.19
             405.29,519.55 405.00,520.31 405.00,521.47
             405.00,523.49 405.78,524.50 407.34,524.50
             407.46,524.50 407.64,524.48 407.89,524.45
             408.14,524.42 408.46,524.38 408.84,524.33
             409.23,524.29 409.66,524.24 410.14,524.20
             410.63,524.16 411.18,524.12 411.78,524.09
             412.39,524.07 413.02,524.06 413.66,524.06
             414.31,524.06 414.98,524.07 415.67,524.09
             416.36,524.12 416.96,524.16 417.47,524.20
             417.98,524.24 418.39,524.29 418.70,524.33
             419.02,524.38 419.30,524.42 419.52,524.45
             419.74,524.48 419.91,524.50 420.02,524.50
             421.50,524.50 422.25,523.47 422.25,521.41
             422.25,520.23 421.80,519.44 420.92,519.03
             420.05,518.62 419.33,518.43 418.78,518.45
             418.24,518.48 417.88,518.44 417.69,518.34
             417.50,518.24 417.38,518.05 417.34,517.78
             417.28,517.53 417.25,511.48 417.25,499.62
             417.25,499.27 417.26,499.05 417.28,498.97
             417.38,498.55 417.91,498.04 418.89,497.42
             419.87,496.81 420.95,496.50 422.12,496.50
             423.88,496.50 425.47,497.24 426.92,498.72
             427.89,499.78 428.64,501.30 429.19,503.28
             429.73,505.26 430.00,508.62 430.00,513.34
             430.00,516.12 429.97,517.65 429.92,517.92
             429.88,518.20 429.91,518.32 430.02,518.30
             429.70,518.34 429.34,518.39 428.94,518.44
             428.53,518.48 428.22,518.52 428.02,518.55
             427.80,518.57 427.55,518.61 427.25,518.66
             426.96,518.71 426.68,518.80 426.41,518.92
             426.14,519.04 425.87,519.25 425.58,519.56
             425.29,519.88 425.11,520.20 425.06,520.55
             425.02,520.88 425.00,521.20 425.00,521.50
             425.00,521.50 425.00,521.97 425.00,521.97
             425.00,523.66 425.68,524.50 427.03,524.50 Z" />
</svg>
