<?xml version="1.0" encoding="UTF-8" standalone="no"?>
<svg
   xmlns:dc="http://purl.org/dc/elements/1.1/"
   xmlns:cc="http://creativecommons.org/ns#"
   xmlns:rdf="http://www.w3.org/1999/02/22-rdf-syntax-ns#"
   xmlns:svg="http://www.w3.org/2000/svg"
   xmlns="http://www.w3.org/2000/svg"
   xmlns:sodipodi="http://sodipodi.sourceforge.net/DTD/sodipodi-0.dtd"
   xmlns:inkscape="http://www.inkscape.org/namespaces/inkscape"
   width="472.57767"
   height="419.37769"
   viewBox="0 0 378.0625 335.50248"
   id="svg2"
   version="1.1"
   inkscape:version="0.48.2 r9819"
   sodipodi:docname="DGLogoDualToneVector.svg">
  <metadata
     id="metadata9">
    <rdf:RDF>
      <cc:Work
         rdf:about="">
        <dc:format>image/svg+xml</dc:format>
        <dc:type
           rdf:resource="http://purl.org/dc/dcmitype/StillImage" />
      </cc:Work>
    </rdf:RDF>
  </metadata>
  <defs
     id="defs7" />
  <sodipodi:namedview
     pagecolor="#ffffff"
     bordercolor="#666666"
     borderopacity="1"
     objecttolerance="10"
     gridtolerance="10"
     guidetolerance="10"
     inkscape:pageopacity="0"
     inkscape:pageshadow="2"
     inkscape:window-width="1181"
     inkscape:window-height="790"
     id="namedview5"
     showgrid="false"
     showguides="true"
     inkscape:guide-bbox="true"
     inkscape:zoom="0.47200046"
     inkscape:cx="35.933005"
     inkscape:cy="30.994973"
     inkscape:window-x="25"
     inkscape:window-y="22"
     inkscape:window-maximized="0"
     inkscape:current-layer="svg2"
     fit-margin-top="5"
     fit-margin-left="5"
     fit-margin-right="5"
     fit-margin-bottom="5" />
  <path
     id="Path #8"
     d="m 32.470004,259.5 c 1.47,0 2.65,-0.32 3.55,-0.95 2.03,-1.42 3.34,-4.77 3.9,-10.05 0,0 1.6,0 1.6,0 16.39,0 31.33,-1.87 44.82,-5.61 C 112.88,235.4 134.24,221.82 150.41,202.14 c 23.3,-28.54 34.95,-66.19 34.95,-112.969996 0,-40.51 -11.8,-66.66 -35.39,-78.45 -8.36,-4.1500001 -17.38,-6.2200001 -27.06,-6.2200001 -9.69,0 -18.43,0.9 -26.209996,2.69 -0.57,-0.81 -1.69,-1.22 -3.36,-1.22 -1.66,0 -3.27,1.05 -4.81,3.15 -12.06,3.4200001 -24.15,8.8600001 -36.28,16.3300001 -2.03,1.39 -3.05,3.3 -3.05,5.74 0,3 1.42,4.5 4.27,4.5 0.74,0 1.63,-0.21 2.69,-0.61 8.22,-5.18 17.43,-9.47 27.61,-12.88 -17.52,51.94 -35.55,123.369996 -54.11,214.299996 -5.38,0 -9.51,-0.66 -12.39,-2 -2.9,-1.33 -4.92,-2.2 -6.07,-2.61 -0.89,-0.25 -1.7700001,-0.37 -2.6200001,-0.37 -0.85,0 -1.74,0.57 -2.67,1.73 -0.94,1.15 -1.41,2.21 -1.41,3.19 0,0.97 0.04,1.67 0.11,2.09 0.34,3.42 5.7900001,6.02 16.3700001,7.8 2.45,0.42 4.85,0.89 7.21,1.4 -0.33,3.01 -0.49,5.31 -0.49,6.89 0,3.26 1.59,4.88 4.77,4.88 z M 159.53,164.98 c -9.65,22 -24.4,39.54 -44.26,52.64 -19.869996,13.11 -44.379996,19.66 -73.519996,19.66 4.8,-23.44 9.4,-45.18 13.8,-65.23 12.7,-58.1 26.1,-109.139996 40.18,-153.109996 6.349996,-1.63 13.429996,-2.44 21.249996,-2.44 38.01,0 57.02,25.15 57.02,75.45 C 174,118.65 169.18,143 159.53,164.98 z m 115.3,-69.369996 c -0.58,2.49 -1.04,4.519996 -1.39,6.089996 -0.36,1.57 -0.78,3.38 -1.27,5.44 -0.48,2.06 -1.03,4.48 -1.64,7.28 0,0 -0.91,5.61 -0.91,5.61 -0.41,2.39 -0.62,4.47 -0.62,6.24 0,3.85 1.07,6.71 3.2,8.59 1.18,1.09 3.09,1.64 5.74,1.64 2.65,0 4.66,-0.5 6.03,-1.52 1.36,-1 2.82,-2.41 4.37,-4.2 1.55,-1.79 2.33,-3.28 2.33,-4.48 0,-2.69 -1.35,-4.03 -4.05,-4.03 -1.27,0 -2.29,0.41 -3.07,1.23 -0.78,0.82 -1.45,1.57 -2,2.23 -0.56,0.66 -1.06,1.18 -1.52,1.57 -0.46,0.38 -0.9,0.58 -1.31,0.58 -0.42,0 -0.61,0.02 -0.58,0.06 -0.29,-0.42 -0.44,-1.76 -0.44,-4.02 0,-2.26 1.04,-7.78 3.11,-16.56 2.08,-8.789996 3.33,-14.249996 3.74,-16.389996 1.34,0 3.12,0 5.34,0 2.23,0 3.78,-0.12 4.66,-0.36 2.4,-0.6 3.61,-2 3.61,-4.2 0,-1.32 -0.53,-2.32 -1.57,-3.02 -1.03,-0.69 -3.01,-1.05 -5.93,-1.05 0,0 -4.58,0 -4.58,0 0.33,-1.93 0.98,-5 1.95,-9.22 0,0 0,-0.87 0,-0.87 0,-2.6 -1.1,-3.91 -3.31,-3.91 -2.2,0 -3.74,1 -4.61,2.99 -0.88,1.99 -1.51,3.95 -1.89,5.89 -0.38,1.94 -0.64,3.4 -0.78,4.37 -0.15,0.97 -0.18,1.22 -0.1,0.75 0,0 -5.51,0 -5.51,0 -1.49,0.18 -2.67,0.77 -3.53,1.77 -0.87,0.99 -1.3,2.03 -1.3,3.12 0,2.23 1.39,3.48 4.17,3.74 2.05,0 3.62,0 4.69,0 -0.11,0.59 -0.45,2.14 -1.03,4.64 z M 215.05,122.09 c -1.05,0.56 -2.5,1.33 -4.35,2.32 -1.84,0.98 -3.5,1.47 -4.98,1.47 -2.01,0 -3.02,-2.13 -3.02,-6.38 0,0 0,-5.81 0,-5.81 3.49,-1.38 6.96,-3.05 10.41,-5.03 3.44,-1.98 6.41,-4.6 8.87,-7.85 2.48,-3.259996 3.72,-7.249996 3.72,-11.969996 0,-2.69 -0.74,-5.11 -2.22,-7.26 -1.46,-2.16 -3.57,-3.24 -6.29,-3.24 -4.38,0 -8.33,2.07 -11.85,6.19 -3.52,4.13 -6.29,9.18 -8.31,15.17 C 195.01,105.7 194,112.05 194,118.78 c 0,4.01 0.77,7.47 2.33,10.38 0.87,1.64 2.03,2.95 3.48,3.9 1.45,0.96 3.49,1.44 6.13,1.44 2.63,0 5.91,-1 9.83,-3.02 3.91,-2.02 5.87,-4.14 5.87,-6.36 0,-2.58 -1.26,-3.87 -3.78,-3.87 -0.84,0 -1.77,0.28 -2.81,0.84 z m -0.21,-25.819996 c -1.43,1.94 -3.51,3.68 -6.26,5.199996 -1.28,0.71 -2.6,1.39 -3.97,2.03 -1.38,0.65 -1.59,0.71 -0.63,0.19 -0.21,2.03 -0.12,2.4 0.25,1.11 1.68,-5.569996 3.71,-9.919996 6.08,-13.079996 2.38,-3.17 4.21,-4.75 5.49,-4.75 0.8,0 1.2,0.62 1.2,1.84 0,3.03 -0.72,5.51 -2.16,7.46 z m 32.25,-60.43 c -1.63,0 -2.97,1.01 -4,3.02 -1.47,8.15 -2.86,15.35 -4.17,21.62 -1.3,6.27 -2.21,10.62 -2.72,13.07 -0.51,2.45 -1.01,4.97 -1.5,7.57 -0.49,2.6 -1.01,5.43 -1.56,8.5 -0.54,3.08 -1.11,6.47 -1.7,10.16 C 230.85,103.48 230.3,107.01 229.78,110.38 c -0.52,3.36 -0.78,6.94 -0.78,10.73 0,3.79 0.89,7.31 2.69,10.55 1.79,3.23 4.63,4.84 8.51,4.84 5.04,0 9.41,-3.07 13.11,-9.2 2.77,-4.53 4.94,-10.18 6.5,-16.96 1.57,-6.78 2.35,-12.639996 2.35,-17.589996 0,-2.66 -0.89,-5.22 -2.66,-7.69 -1.77,-2.47 -4.34,-3.72 -7.7,-3.72 -3.36,0 -6.68,1.71 -9.96,5.13 -1.55,1.6 -2.82,4.63 -3.81,9.08 2.97,-7.03 5.51,-15.04 7.61,-24.03 2.1,-8.99 4.06,-19.08 5.88,-30.27 0,0 0.25,-0.83 0.25,-0.83 0,-3.05 -1.56,-4.58 -4.68,-4.58 z M 238.44,110.92 c 0.5,-4.71 2.4,-9.37 5.72,-13.999996 3.31,-4.63 5.72,-6.95 7.22,-6.95 0.5,0 0.89,0.46 1.18,1.39 0.29,0.92 0.44,2.58 0.44,4.98 0,2.41 -0.18,4.699996 -0.53,6.859996 -1.29,7.83 -3.56,14.36 -6.8,19.6 -2.09,3.38 -4.04,5.08 -5.84,5.08 -1.42,0 -2.13,-2.2 -2.13,-6.58 0,-2.22 0.25,-5.68 0.74,-10.38 z m -30.56,198.69 c 1.55,-1.41 2.91,-2.13 4.07,-2.13 0.74,0 2.09,0.93 4.03,2.79 1.96,1.85 3.5,2.78 4.61,2.78 2.57,0 3.85,-1.77 3.85,-5.3 0,0 0,-45.78 0,-45.78 0,-1.42 0.08,-2.39 0.25,-2.92 0.49,-2.12 2.9,-4.03 7.23,-5.74 4.35,-1.7 6.52,-4.17 6.52,-7.39 0,-1.55 -0.59,-2.96 -1.77,-4.22 -1.18,-1.27 -2.94,-1.9 -5.29,-1.9 -0.56,0 -2.11,0.1 -4.65,0.29 -2.53,0.19 -6.06,0.39 -10.59,0.58 -4.53,0.2 -9.42,0.3 -14.67,0.3 0,0 -0.55,0 -0.55,0 -5.07,0 -9.74,-0.1 -14,-0.3 -4.26,-0.19 -7.54,-0.39 -9.84,-0.58 -2.29,-0.19 -3.7,-0.29 -4.2,-0.29 -3.92,0 -5.88,2.23 -5.88,6.7 0,4.28 2.55,6.62 7.66,7 1.93,0.18 4.48,0.36 7.65,0.53 7.22,0.53 11.97,1.33 14.25,2.39 2.29,1.06 3.44,3.35 3.44,6.88 0,0 0,30.42 0,30.42 0,2.12 -0.27,3.71 -0.81,4.76 -1.63,3.18 -7.04,6.89 -16.24,11.13 -9.18,4.23 -19,6.34 -29.45,6.34 -7.93,0 -15.77,-1.51 -23.52,-4.54 -7.75,-3.03 -15.46,-7.85 -23.12,-14.46 -7.659996,-6.6 -13.829996,-16.24 -18.519996,-28.9 -4.68,-12.68 -7.03,-27.58 -7.03,-44.71 0,-14.11 1.89,-26.57 5.67,-37.37 3.79,-10.81 8.79,-19.16 14.999996,-25.05 6.22,-5.89 12.8,-10.27 19.74,-13.12 6.94,-2.87 14.11,-4.3 21.5,-4.3 11.84,0 23.14,2.98 33.89,8.92 10.75,5.95 19.68,13.7 26.78,23.24 3.82,5.23 6.46,10.32 7.92,15.28 1.46,4.95 2.46,8.28 3.02,10 0.55,1.71 2.11,2.56 4.67,2.56 5.1,0 7.66,-1.44 7.66,-4.33 0,-0.17 -0.09,-1.16 -0.25,-2.97 -0.17,-1.8 -0.38,-4.27 -0.63,-7.42 -0.24,-3.16 -0.53,-6.72 -0.86,-10.69 -0.32,-3.97 -0.57,-8.64 -0.73,-14.04 -0.17,-5.41 -0.25,-10.73 -0.25,-15.96 0,0 0,-7.67 0,-7.67 0,-2.6 -1.28,-3.9 -3.85,-3.9 -1.46,0 -2.64,0.27 -3.56,0.82 -0.55,0.19 -2.25,2.08 -5.09,5.66 -2.84,3.57 -5.26,5.36 -7.27,5.36 0,0 -1.09,0 -1.09,0 -0.37,0 -2.25,-1.06 -5.64,-3.19 -3.39,-2.12 -7.23,-4.29 -11.53,-6.5 -4.3,-2.22 -10.11,-4.25 -17.43,-6.09 -7.32,-1.85 -14.82,-2.78 -22.51,-2.78 -25.35,0 -46.929996,9.29 -64.749996,27.87 -17.81,18.58 -26.72,41.69 -26.72,69.33 0,28.67 9.49,53.17 28.47,73.5 C 102.46,320.84 124.81,331 150.53,331 c 21.85,0 40.96,-7.13 57.35,-21.39 z m 38.23,-36.36 c 0,0 0,-3.09 0,-3.09 0,-2.07 -0.81,-3.1 -2.44,-3.1 -0.35,0 -0.73,0.11 -1.14,0.32 0.11,-0.07 0.15,-0.1 0.11,-0.1 -1.69,0.84 -3.43,1.7 -5.23,2.61 -2.59,1.24 -3.88,2.35 -3.88,3.33 0.15,0.62 0.43,1.12 0.85,1.53 0.6,0.45 1.22,0.9 1.87,1.34 0.64,0.44 1.05,0.72 1.23,0.85 0.19,0.11 0.32,0.22 0.41,0.31 0.08,0.09 0.12,0.11 0.11,0.08 0,-0.04 0,0.01 0,0.17 0,0 0,19.88 0,19.88 0,0.16 -0.02,0.25 -0.05,0.26 -0.23,0.09 -0.6,0.17 -1.11,0.25 -0.51,0.07 -0.94,0.2 -1.29,0.36 -0.35,0.17 -0.69,0.49 -1.03,0.97 -0.35,0.47 -0.52,1.1 -0.52,1.9 0,1.92 0.9,2.88 2.7,2.88 0.1,0 0.3,-0.02 0.58,-0.06 0.29,-0.03 0.65,-0.09 1.08,-0.16 0.43,-0.06 0.9,-0.12 1.42,-0.19 0.53,-0.06 1.13,-0.1 1.81,-0.12 0.69,-0.03 1.38,-0.05 2.08,-0.05 0.63,0 1.31,0.02 2.03,0.05 0.72,0.02 1.07,0.03 1.07,0.03 0,0 0.58,0.06 1.76,0.19 1.18,0.13 1.93,0.22 2.27,0.25 0.33,0.04 0.54,0.06 0.62,0.06 1.42,0 2.13,-1.04 2.13,-3.11 0,-1.38 -0.42,-2.24 -1.24,-2.56 -0.82,-0.33 -2.09,-0.55 -3.81,-0.66 -1.92,-0.05 -3.46,0.42 -4.62,1.41 1.78,0.82 2.67,0.07 2.67,-2.27 0,0 0,-18.26 0,-18.26 0,-0.32 0,-0.49 0.03,-0.52 0.21,-0.31 0.81,-0.78 1.81,-1.42 1.01,-0.65 1.9,-0.97 2.67,-0.97 0.58,0 1.26,0.23 2.02,0.69 0.76,0.45 1.58,0.67 2.45,0.67 0.52,0 1.02,-0.06 1.49,-0.19 0.46,-0.12 0.89,-0.29 1.29,-0.5 0.4,-0.2 0.69,-0.31 0.88,-0.31 0,0 0.95,-0.81 0.95,-0.81 0.36,-0.32 0.64,-0.58 0.83,-0.77 0.19,-0.19 0.45,-0.52 0.76,-0.98 0.32,-0.47 0.49,-1.02 0.49,-1.64 0,0 0,-0.07 0,-0.07 0,-1.63 -0.84,-2.85 -2.52,-3.65 -1.66,-0.8 -3.3,-1.2 -4.9,-1.2 -1.05,0 -1.94,0.12 -2.68,0.35 -0.73,0.25 -1.76,0.8 -3.09,1.68 -1.33,0.86 -2.45,1.61 -3.34,2.23 -0.89,0.62 -1.2,0.92 -0.92,0.92 0.89,0 1.34,0.4 1.34,1.19 z m 21.09,6.16 c 0.99,0.74 2.07,1.11 3.22,1.11 1.18,0 2.19,-0.54 3.03,-1.6 1.35,-2.79 2.94,-4.19 4.8,-4.19 1.28,0 2.38,0.48 3.3,1.44 0.91,1.09 1.37,2.71 1.37,4.88 0,0 0,2.67 0,2.67 0,-0.24 0.24,-0.42 0.74,-0.53 0,0 -0.91,0.04 -0.91,0.04 -0.74,0.07 -1.64,0.19 -2.7,0.36 -1.06,0.18 -2.18,0.4 -3.38,0.66 -1.2,0.25 -2.44,0.63 -3.73,1.14 -1.28,0.5 -2.35,1.09 -3.21,1.77 -2.49,1.9 -3.73,4.53 -3.73,7.87 0,0 0,0.08 0,0.08 0,2.76 0.93,5.1 2.8,7.01 1.87,1.92 4.28,2.88 7.23,2.88 2.77,0 5.4,-0.78 7.89,-2.33 0.65,-0.41 1.17,-0.82 1.56,-1.22 0.4,-0.4 0.57,-0.54 0.5,-0.42 -0.05,0.12 -0.36,0.17 -0.92,0.17 -0.99,0 -1.48,0.02 -1.48,0.05 0,0.02 0.27,0.03 0.81,0.03 0,0 -0.23,-0.33 -0.23,-0.33 0.23,0.33 0.53,0.66 0.87,1 0.35,0.35 0.76,0.73 1.22,1.14 0.47,0.41 1.08,0.74 1.83,1 0.75,0.27 1.53,0.41 2.34,0.41 2.21,0 3.99,-0.84 5.33,-2.52 1.35,-1.67 2.03,-3.25 2.03,-4.75 0,-1.64 -0.74,-2.46 -2.23,-2.46 -0.86,0 -1.45,0.25 -1.78,0.76 -0.34,0.5 -0.6,0.84 -0.79,1 -0.18,0.16 -0.43,0.24 -0.73,0.24 -0.16,0 -0.28,-0.02 -0.37,-0.05 -0.1,-0.03 -0.23,-0.17 -0.4,-0.42 -0.15,-0.25 -0.23,-0.66 -0.23,-1.22 0,0 0,-14.61 0,-14.61 0,-0.69 -0.05,-1.65 -0.14,-2.89 -0.24,-2.01 -0.87,-3.74 -1.88,-5.17 -1.01,-1.45 -2.23,-2.46 -3.65,-3.02 -1.42,-0.57 -2.67,-0.97 -3.74,-1.19 -1.07,-0.22 -2.12,-0.32 -3.14,-0.32 -3.22,0 -6.18,0.88 -8.9,2.65 -2.72,1.77 -4.08,3.69 -4.08,5.75 0,1.34 0.49,2.39 1.48,3.13 z m 8.38,17.71 c -0.69,-0.57 -1.03,-1.54 -1.03,-2.92 0,-1.22 0.41,-2.18 1.25,-2.86 0.9,-0.84 2.18,-1.43 3.84,-1.78 1.66,-0.34 3.05,-0.51 4.19,-0.51 -0.45,0 -0.7,-0.1 -0.75,-0.28 -0.06,-0.19 -0.08,0.11 -0.08,0.89 0,0 0,4.87 0,4.87 0,0.39 -0.03,0.62 -0.09,0.69 -0.2,0.24 -0.46,0.51 -0.79,0.83 -0.31,0.3 -0.88,0.65 -1.71,1.04 -0.84,0.4 -1.7,0.6 -2.6,0.6 -1.08,0 -1.83,-0.19 -2.23,-0.57 z m 35.65,-0.82 c -0.65,-0.3 -0.98,-0.62 -0.98,-0.94 0,0 0,-16.09 0,-16.09 0,-1.56 0.48,-2.67 1.44,-3.35 1.16,-0.87 2.49,-1.31 3.97,-1.31 2.63,0 5.01,1.16 7.14,3.48 2.13,2.32 3.2,5.05 3.2,8.21 0,3.16 -1.06,5.79 -3.17,7.89 -2.12,2.08 -4.59,3.12 -7.41,3.12 -1.47,0 -2.87,-0.33 -4.19,-1.01 z m 5,-29.33 c -1.91,0.28 -3.63,0.9 -5.15,1.84 -1.53,0.94 -2.65,1.82 -3.38,2.64 0,0 -0.48,0.55 -0.48,0.55 1.3,0 1.95,0.38 1.95,1.12 0,0 0,-4.73 0,-4.73 0,-1.68 -0.72,-2.51 -2.17,-2.51 -0.28,0 -0.56,0.05 -0.83,0.15 -0.27,0.09 -0.46,0.2 -0.56,0.3 -0.11,0.1 -0.21,0.18 -0.31,0.23 -0.1,0.06 -0.24,0.14 -0.42,0.27 -1.41,0.87 -3,1.85 -4.79,2.94 -2.73,1.65 -4.09,2.88 -4.09,3.67 0,0 0,0.08 0,0.08 0,0.74 0.24,1.28 0.72,1.64 0.49,0.34 1.41,0.8 2.78,1.37 0.98,0.44 1.82,0.81 2.52,1.09 -0.02,0 -0.02,0.04 -0.02,0.11 0,0 0,34.94 0,34.94 0,0.31 -0.11,0.49 -0.33,0.53 -0.32,0.05 -0.67,0.13 -1.05,0.22 -0.37,0.1 -0.67,0.17 -0.9,0.19 -0.22,0.03 -0.48,0.08 -0.78,0.16 -0.3,0.08 -0.52,0.14 -0.67,0.17 -0.15,0.04 -0.41,0.13 -0.79,0.28 -0.36,0.16 -0.6,0.32 -0.7,0.48 -0.1,0.18 -0.23,0.34 -0.37,0.49 -0.14,0.14 -0.25,0.38 -0.32,0.7 -0.06,0.32 -0.09,0.61 -0.09,0.86 0,2.03 0.96,3.05 2.89,3.05 0,0 1.5,-0.16 1.5,-0.16 0.91,-0.09 2.14,-0.19 3.7,-0.3 1.57,-0.09 3.14,-0.14 4.74,-0.14 1.19,0 2.31,0.02 3.36,0.07 1.05,0.05 1.88,0.1 2.5,0.15 0.61,0.05 0.99,0.08 1.12,0.08 1.63,0 2.44,-0.89 2.44,-2.67 0,-0.46 -0.05,-0.92 -0.14,-1.38 -0.09,-0.46 -0.32,-0.83 -0.67,-1.12 -0.36,-0.28 -0.69,-0.51 -0.99,-0.69 -0.29,-0.18 -0.69,-0.3 -1.2,-0.36 -0.51,-0.06 -0.92,-0.11 -1.23,-0.14 -0.32,-0.03 -0.81,-0.07 -1.47,-0.12 -0.66,-0.05 -1.23,-0.09 -1.71,-0.14 -0.2,-0.02 -0.29,-0.14 -0.29,-0.38 0,0 0,-10.69 0,-10.69 0,0.5 -0.42,0.75 -1.24,0.75 0,0 0.3,0.08 0.3,0.08 0.25,0 0.5,0.02 0.77,0.06 0.26,0.04 0.61,0.09 1.04,0.14 0.44,0.05 0.92,0.09 1.44,0.11 0.53,0.03 1.06,0.05 1.59,0.05 5.75,0 10.49,-1.68 14.21,-5.05 3.72,-3.36 5.59,-7.74 5.59,-13.12 0,-4.88 -1.51,-9.1 -4.52,-12.64 -3.01,-3.54 -6.85,-5.31 -11.53,-5.31 -0.85,0 -1.51,0.03 -1.97,0.09 z m 41.8,36.03 c 0.11,0 0.26,-0.02 0.42,-0.05 0.18,-0.03 0.46,-0.07 0.83,-0.12 0.38,-0.04 0.83,-0.09 1.33,-0.13 0.51,-0.04 1.09,-0.08 1.73,-0.11 0.65,-0.02 1.29,-0.03 1.94,-0.03 0.65,0 1.32,0.01 2.02,0.03 0.69,0.03 1.28,0.07 1.76,0.11 0.49,0.04 0.95,0.09 1.38,0.13 0.42,0.05 0.77,0.09 1.04,0.12 0.27,0.03 0.46,0.05 0.57,0.05 1.66,0 2.5,-1.05 2.5,-3.17 0,-1.66 -0.88,-2.57 -2.63,-2.74 -0.71,-0.08 -1.1,-0.13 -1.17,-0.15 -0.06,-0.02 -0.12,-0.06 -0.16,-0.11 -0.03,-0.05 -0.04,-0.26 -0.04,-0.61 -0.15,-6.78 -0.36,-11.38 -0.63,-13.78 -0.27,-2.41 -0.82,-4.61 -1.64,-6.61 -2.22,-5.17 -5.96,-7.75 -11.22,-7.75 -1.65,0 -3.23,0.26 -4.73,0.76 -1.49,0.52 -2.58,0.98 -3.27,1.39 -0.68,0.42 -0.9,0.63 -0.65,0.63 0.8,0 1.2,0.35 1.2,1.05 0,0 0.08,-23.08 0.08,-23.08 0,-1.97 -0.9,-2.95 -2.69,-2.95 0,0 -0.06,0 -0.06,0 -0.48,0 -3.47,1.65 -8.97,4.95 -1.31,0.73 -1.97,1.67 -1.97,2.81 0,1.5 0.79,2.45 2.36,2.86 1.58,0.4 2.37,0.57 2.36,0.52 0.19,1.1 0.28,7.14 0.28,18.1 0,0 0,0.3 0,0.3 0,6.12 -0.12,12.93 -0.36,20.44 -0.04,0.5 -0.07,0.79 -0.08,0.86 0,0.07 -0.01,0.13 -0.04,0.17 -0.04,0.04 -0.05,0.06 -0.04,0.06 -1.16,0.13 -2.04,0.37 -2.62,0.74 -0.57,0.36 -0.86,1.12 -0.86,2.28 0,2.02 0.78,3.03 2.34,3.03 0.12,0 0.3,-0.02 0.55,-0.05 0.25,-0.03 0.57,-0.07 0.95,-0.12 0.39,-0.04 0.82,-0.09 1.3,-0.13 0.49,-0.04 1.04,-0.08 1.64,-0.11 0.61,-0.02 1.24,-0.03 1.88,-0.03 0.65,0 1.32,0.01 2.01,0.03 0.69,0.03 1.29,0.07 1.8,0.11 0.51,0.04 0.92,0.09 1.23,0.13 0.32,0.05 0.6,0.09 0.82,0.12 0.22,0.03 0.39,0.05 0.5,0.05 1.48,0 2.23,-1.03 2.23,-3.09 0,-1.18 -0.45,-1.97 -1.33,-2.38 -0.87,-0.41 -1.59,-0.6 -2.14,-0.58 -0.54,0.03 -0.9,-0.01 -1.09,-0.11 -0.19,-0.1 -0.31,-0.29 -0.35,-0.56 -0.06,-0.25 -0.09,-6.3 -0.09,-18.16 0,-0.35 0.01,-0.57 0.03,-0.65 0.1,-0.42 0.63,-0.93 1.61,-1.55 0.98,-0.61 2.06,-0.92 3.23,-0.92 1.76,0 3.35,0.74 4.8,2.22 0.97,1.06 1.72,2.58 2.27,4.56 0.54,1.98 0.81,5.34 0.81,10.06 0,2.78 -0.03,4.31 -0.08,4.58 -0.04,0.28 -0.01,0.4 0.1,0.38 -0.32,0.04 -0.68,0.09 -1.08,0.14 -0.41,0.04 -0.72,0.08 -0.92,0.11 -0.22,0.02 -0.47,0.06 -0.77,0.11 -0.29,0.05 -0.57,0.14 -0.84,0.26 -0.27,0.12 -0.54,0.33 -0.83,0.64 -0.29,0.32 -0.47,0.64 -0.52,0.99 -0.04,0.33 -0.06,0.65 -0.06,0.95 0,0 0,0.47 0,0.47 0,1.69 0.68,2.53 2.03,2.53 z"
     inkscape:connector-curvature="0"
     style="fill:none;stroke:#000000;stroke-width:1" />
  <path
     style="fill:#550000"
     d="m 172.2659,239.1303 c -7.13536,0.74523 -7.81056,12.25455 -0.76801,13.85064 8.28968,2.93979 18.11685,0.83177 25.90042,4.87288 3.47055,4.9439 1.22968,11.86775 1.89843,17.53173 -0.44659,7.74088 0.54612,16.09252 -0.89004,23.44577 -7.62483,7.72711 -18.35937,11.10307 -28.44341,14.37588 -29.53336,7.80244 -62.84921,-8.16655 -76.463728,-35.09784 -5.864197,-10.31689 -7.408087,-22.09128 -10.852314,-33.23224 -2.460915,-2.74513 -7.079175,0.69291 -10.301906,0.37076 -4.572453,1.37991 -9.782258,0.43583 -14.115462,2.25106 -3.014363,4.15804 0.978937,9.6422 1.615466,14.0625 9.846201,28.86157 32.245447,54.25025 61.096394,64.90996 27.30389,9.66114 59.61929,5.40449 82.4615,-12.73843 2.83184,-1.57305 5.55225,-5.25401 8.79909,-5.24356 3.3869,1.63657 8.00532,7.39736 11.59958,3.09851 2.53904,-6.70888 1.03792,-14.46858 1.62943,-21.58364 0.51637,-10.69004 -0.88861,-21.66268 0.85998,-32.20343 3.98818,-4.2017 12.95107,-5.5132 12.68538,-12.63242 -1.53508,-6.93815 -10.51643,-5.83268 -15.80951,-5.55217 -16.95737,0.059 -33.98439,0.58294 -50.90129,-0.48596 z"
     id="path2986"
     inkscape:connector-curvature="0" />
  <path
     style="fill:#550000"
     d="m 254.23094,266.24894 c -2.84874,0.18822 -5.92699,2.72104 -7.75954,3.60169 0.30849,-4.18099 -4.89758,-3.58021 -7.12394,-1.536 -2.96312,0.91176 -7.85378,4.40562 -4.31674,7.54766 4.58589,2.61331 1.56825,9.26711 2.51589,13.47988 -0.66291,2.39159 1.19961,6.64228 -1.11228,8.18326 -3.93144,0.6824 -4.34032,7.49804 0.39724,6.72669 5.35735,-0.44673 11.55725,1.35087 16.41949,-1.27118 2.60581,-4.03059 -3.57803,-6.70886 -6.5678,-5.21717 2.03643,-6.52779 -0.36087,-14.12163 1.61547,-20.47139 3.82272,-1.79132 8.67862,1.90526 12.02331,-1.85382 3.80825,-2.43367 2.00225,-7.92549 -2.22458,-8.5805 -1.21268,-0.5036 -2.55272,-0.74034 -3.86652,-0.60912 z"
     id="path2988"
     inkscape:connector-curvature="0" />
  <path
     style="fill:#550000"
     d="m 277.21822,267.59958 c -4.93896,0.46889 -12.38419,4.03195 -11.38771,9.93114 1.15862,4.24722 6.57359,3.98171 8.79237,0.76801 1.59567,-1.7878 4.35939,-4.67392 6.22352,-1.53602 1.19131,1.5848 1.87691,4.39334 2.14513,5.87924 -5.95866,1.18502 -13.49839,1.74047 -16.44597,8.18327 -3.95422,7.38795 4.01177,16.69872 11.97033,14.51271 2.83533,0.009 5.38127,-2.07867 6.93856,-3.73411 0.47485,4.15304 7.52098,4.02199 9.87818,1.32415 2.67116,-1.86738 4.61185,-8.65723 -0.13241,-8.63348 -1.29573,1.04196 -4.17884,2.55608 -3.38983,-0.82097 -1.15832,-6.95226 1.63572,-14.94847 -2.33052,-21.15995 -2.831,-3.66712 -7.77048,-5.1316 -12.26165,-4.71399 z m 5.24365,23.99364 c 1.04402,3.86598 -4.01176,6.76314 -6.77967,4.50212 -1.63659,-4.09317 2.88373,-6.22778 6.28957,-6.18826 1.13947,-0.63024 0.1601,1.34411 0.4901,1.68614 z"
     id="path2990"
     inkscape:connector-curvature="0" />
  <path
     style="fill:#550000"
     d="m 306.66738,265.74577 c -4.03855,1.45796 -8.07687,3.9988 -10.88454,7.20339 -0.56842,4.42034 7.51933,3.49771 5.32309,8.42161 -0.31162,10.37845 0.63865,21.1668 -0.52965,31.32944 -3.54287,-0.34487 -7.7444,5.65054 -2.91314,6.80615 6.48523,0.67421 13.37383,1.23926 19.75635,-0.10593 3.48049,-3.10243 -1.24065,-7.60163 -4.92584,-7.01801 -2.78069,-0.56021 -0.95053,-5.09113 -1.53602,-7.28284 -0.6811,-3.17579 1.16441,-1.15535 3.04555,-1.35064 8.60925,-0.36031 17.97724,-4.84406 20.04767,-13.9036 4.07758,-11.7044 -7.10686,-26.60846 -19.8358,-22.88136 -2.78497,0.38594 -5.4501,2.63996 -5.37606,5.40255 -1.14046,-1.30853 2.22026,-3.76168 0.21186,-5.66738 -0.54632,-0.71925 -1.48612,-1.12635 -2.38347,-0.95338 z m 8.36864,9.56037 c 9.76526,-0.47446 14.06208,15.09909 5.34958,19.57098 -2.39783,1.30405 -7.09506,2.89405 -8.95127,0.34428 -0.34549,-6.08015 -1.06456,-12.64514 0.29131,-18.53813 0.9421,-0.85994 2.04749,-1.31973 3.31038,-1.37713 z"
     id="path2992"
     inkscape:connector-curvature="0" />
  <path
     style="fill:#550000"
     d="m 346.39195,245.51272 c -4.01895,1.86705 -9.65426,3.3564 -11.54661,7.73304 -0.49309,2.34337 2.01708,4.1159 3.97246,4.15785 0.63753,12.90098 0.80595,26.04624 -0.0794,38.87711 -3.58308,0.74951 -4.22344,7.57956 0.29131,7.09746 4.4568,-0.41308 10.13225,1.44856 13.74471,-1.72139 1.59471,-2.32933 -0.29485,-5.34343 -2.88666,-5.40255 -0.32887,-6.40675 -1.44367,-13.41208 0.23835,-19.6769 3.62307,-1.9773 8.92482,0.55769 9.05721,4.97881 0.72357,4.75408 1.40874,10.56694 0.26482,14.93644 -3.74939,-0.0931 -5.85075,6.22589 -1.21822,6.46186 4.69759,-0.10237 10.01661,1.11443 14.3803,-0.45021 2.0668,-2.11174 1.00941,-6.06433 -1.93326,-6.11759 -1.60656,-9.37094 0.45024,-21.83727 -9.00424,-27.62182 -4.2177,-1.84421 -10.09463,-1.45784 -13.40042,1.61547 1.25874,-7.74174 1.29896,-15.90563 0.42373,-23.70233 -0.27544,-0.98954 -1.40336,-1.30422 -2.30403,-1.16525 z"
     id="path2994"
     inkscape:connector-curvature="0" />
  <path
     style="fill:#550000"
     d="m 142.63136,129.64937 c -34.2384,-0.1535 -65.274901,23.97122 -79.369707,54.26377 -7.696768,16.29024 -9.008609,34.84652 -8.713097,52.50709 4.13678,1.85556 9.86625,-0.49216 14.565855,-0.75921 4.258684,-1.09072 9.065136,-1.01439 12.950212,-3.04555 -0.0708,-20.96035 1.072385,-43.19143 12.632413,-61.30827 10.953814,-17.75161 32.338564,-28.8128 53.469284,-26.61546 6.27332,-0.12637 12.06696,2.39126 18.14089,2.75424 1.35778,-4.38134 4.3662,-9.51005 2.86017,-14.19492 -4.20473,-3.70556 -10.78564,-2.66956 -16.02124,-3.4576 -3.50191,-0.16012 -7.00959,-0.20809 -10.51478,-0.14409 z"
     id="path2996"
     inkscape:connector-curvature="0" />
  <path
     style="fill:#550000"
     d="m 220.25318,135.58157 c -6.32496,1.98982 -9.27201,9.89847 -15.43962,11.78496 -7.79061,-2.63529 -14.68962,-7.75103 -22.32521,-10.93751 -3.9315,0.88854 -3.49912,6.63729 -4.92585,9.71929 -1.38959,3.3539 -1.09526,7.65851 2.8072,9.08369 15.65354,9.63607 28.44526,24.39486 32.86548,42.58474 0.44363,4.16225 4.00945,7.14776 8.20974,6.0911 4.57704,0.15463 7.16536,-4.50324 6.01165,-8.63347 -2.04858,-18.31323 -1.05742,-36.84476 -3.01906,-55.13772 -0.28788,-2.12946 -1.56374,-4.97456 -4.18433,-4.55508 z"
     id="path2998"
     inkscape:connector-curvature="0" />
  <path
     style="fill:#550000"
     d="m 171.23305,133.14513 c -4.24506,1.509 -2.90458,7.56837 -4.92584,10.91101 -2.78018,5.35013 5.31619,5.94512 8.60699,8.05085 3.96987,-0.01 3.28613,-6.04116 4.6092,-8.68571 1.46586,-3.70437 2.84475,-8.79454 -2.67594,-9.13738 -1.85475,-0.49473 -3.70201,-1.25384 -5.61441,-1.13877 z"
     id="path3000"
     inkscape:connector-curvature="0" />
  <path
     style="fill:#000055;fill-opacity:1"
     d="M 118.33051,4.2892001 C 110.68592,3.7899756 103.09928,6.26605 95.63454,5.9311457 91.628657,3.8996157 89.016462,9.0460287 85.279666,9.5063571 73.645967,13.846345 61.870652,18.615006 51.513777,25.555085 47.613582,28.043911 47.661054,36.386399 53.261659,36.174791 62.44474,33.218924 70.55434,27.304486 79.824157,24.2839 84.56829,21.435793 80.66303,27.987375 80.446606,30.302673 58.930177,97.480115 43.975522,166.51218 29.162084,235.3803 c -7.068415,1.69128 -13.604806,-3.35118 -20.286021,-4.39618 -5.7045519,1.37641 -6.189538,10.32106 -0.4237292,12.12923 5.7953912,2.94054 12.4091182,3.63606 18.6705482,5.11123 0.03752,4.17173 -0.962041,11.93595 5.243645,11.89089 5.264501,-0.54741 7.724031,-6.3833 8.103816,-11.04343 5.204773,-0.45658 10.985946,0.94866 15.889831,-1.08581 1.249449,-3.43797 0.398313,-7.79147 -0.609112,-11.12288 -4.296629,-0.74239 -8.794145,0.0151 -13.162077,-0.39724 15.194935,-73.00303 31.08199,-145.919714 53.681148,-217.028607 18.587597,-3.393291 40.120707,-3.730316 55.534957,8.739408 15.88382,13.626814 20.55331,35.657043 21.02493,55.719999 0.57524,15.985967 -0.58996,32.14209 -3.0959,47.82873 1.78808,3.47252 6.99302,3.4737 10.3019,4.0519 3.65369,-4.02658 2.652,-10.65361 3.90809,-15.72564 2.98041,-29.004695 4.24362,-60.512438 -10.15629,-86.863128 C 163.87598,14.710618 143.12514,3.2823031 122.25005,4.27968 c -1.30661,-0.03208 -2.61291,-0.0048 -3.91954,0.00952 z"
     id="path3020"
     inkscape:connector-curvature="0" />
  <path
     style="fill:#000055;fill-opacity:1"
     d="m 78.129243,233.12924 c -7.268887,1.0533 -14.541782,2.16336 -21.795557,3.04555 -2.66829,2.51544 0.209848,6.71073 -0.264824,9.95763 2.041674,3.72717 7.571279,0.86753 10.937499,1.0858 4.970204,-0.96112 10.27113,-1.27769 14.962918,-2.99258 1.263705,-3.23975 1.73569,-8.39799 -1.085801,-10.85805 -0.878377,-0.34535 -1.827658,-0.28449 -2.754235,-0.23835 z"
     id="path3022"
     inkscape:connector-curvature="0" />
  <path
     style="fill:#000055;fill-opacity:1"
     d="m 165.23199,148.33051 c -7.94495,23.50775 -20.59485,45.91972 -40.40554,61.31697 -12.45224,10.26842 -27.075868,17.36133 -42.406954,22.13113 -1.926394,2.86625 -1.318274,7.65463 -0.185385,10.99046 3.928588,2.84533 9.041529,-1.53073 13.110757,-2.2273 30.234472,-10.29849 56.066732,-32.44621 70.496232,-60.93478 4.31928,-8.4018 8.22476,-17.17936 10.85806,-26.29767 -1.16428,-3.73843 -6.56487,-3.82845 -9.71929,-5.48199 -0.6507,-0.25909 -1.16843,0.31689 -1.74788,0.50318 z"
     id="path3024"
     inkscape:connector-curvature="0" />
  <path
     style="fill:#000055;fill-opacity:1"
     d="m 216.37076,78.176912 c -11.26506,0.675001 -16.4772,12.755365 -19.76339,21.936138 -3.09425,10.21172 -5.90026,23.26102 1.64899,32.16873 6.72871,5.33041 16.67602,1.33231 22.27225,-3.78707 4.08235,-2.90596 -0.18595,-10.17991 -4.58158,-7.25636 -3.66471,0.81375 -7.43408,4.86535 -11.25529,3.46928 -2.1355,-2.81733 -0.92513,-7.21014 -1.61546,-10.56674 10.12282,-4.52646 22.72472,-11.20713 22.9608,-23.940678 0.4511,-5.64159 -2.72944,-13.468589 -9.66632,-12.0233 z m -0.71504,9.878178 c 1.40709,2.923659 -0.96038,7.336975 -3.33686,9.692793 -1.6793,1.82757 -5.1048,3.732437 -6.54132,4.369707 2.37125,-4.821195 4.62784,-11.815042 9.87818,-14.0625 z"
     id="path3026"
     inkscape:connector-curvature="0" />
  <path
     style="fill:#000055;fill-opacity:1"
     d="m 247.38242,35.777543 c -6.01799,0.272656 -4.88126,8.044256 -6.48575,12.068252 -4.51458,23.074982 -10.3082,46.055628 -12.0259,69.552515 -0.48254,7.18165 0.55601,17.72969 9.16313,19.49152 10.16377,1.28731 16.56252,-9.28882 19.51801,-17.58474 3.2247,-10.22443 6.68789,-21.591087 3.73411,-32.256361 -3.22624,-7.787656 -14.50437,-7.564704 -19.20021,-1.350634 4.26888,-15.399479 8.71385,-31.029894 9.98411,-47.007413 -0.1864,-2.232747 -2.75861,-3.126483 -4.6875,-2.913139 z m 3.65466,55.005301 c 2.59481,6.749799 0.11584,14.620086 -1.43009,21.451266 -1.73884,5.53048 -4.30334,12.52131 -9.79873,14.93644 -2.18234,-4.17693 -0.38692,-9.99832 -0.68856,-14.6716 0.33127,-8.20564 5.38147,-16.944221 11.91738,-21.716106 z"
     id="path3028"
     inkscape:connector-curvature="0" />
  <path
     style="fill:#000055;fill-opacity:1"
     d="m 283.6642,68.11335 c -6.00352,1.146737 -4.61096,9.373937 -7.49471,13.082629 -4.24069,-0.219672 -11.07313,2.102114 -9.42796,7.521183 1.54856,3.000011 5.50216,2.664115 8.36864,2.780723 -2.50727,12.944325 -7.22855,25.974845 -6.11758,39.274365 2.38496,6.17829 11.33831,8.96723 15.96928,3.54872 2.63625,-2.67849 8.86372,-7.32662 4.8464,-11.30825 -4.14967,-3.73225 -7.90836,2.62768 -10.99047,3.99894 -0.18076,-10.69334 3.30211,-21.16088 5.25869,-31.655723 0.20922,-2.260874 0.90007,-4.677677 3.74555,-3.884532 3.97468,0.194912 11.96196,-0.235024 10.9375,-5.985174 -2.184,-3.91746 -7.57723,-4.042588 -11.54661,-3.99894 0.0326,-4.05554 3.3502,-10.60161 -1.21822,-13.188557 -0.74356,-0.244272 -1.55738,-0.243944 -2.33051,-0.185384 z"
     id="path3030"
     inkscape:connector-curvature="0" />
</svg>
